<svg width="25" height="25" viewBox="0 0 25 25" fill="none" xmlns="http://www.w3.org/2000/svg">
<path d="M13.7521 21.2001H8.71982C5.94058 21.2001 3.68756 18.9471 3.68756 16.1678V8.11619C3.68756 5.33694 5.94058 3.08392 8.71982 3.08392L16.7714 3.08392C19.5507 3.08392 21.8037 5.33694 21.8037 8.11619V13.1485" stroke="#2669FF" stroke-width="2.07882" stroke-linecap="round" stroke-linejoin="round"/>
<path d="M15.3087 9.57957C16.7233 10.9946 16.7231 13.2885 15.3081 14.7033C13.8932 16.1181 11.5993 16.1181 10.1844 14.7033C8.76948 13.2885 8.76923 10.9946 10.1838 9.57957C10.8634 8.89982 11.7851 8.51793 12.7463 8.51793C13.7074 8.51793 14.6292 8.89982 15.3087 9.57957" stroke="#2669FF" stroke-width="2.07882" stroke-linecap="round" stroke-linejoin="round"/>
<path d="M17.7783 19.6841H22.8106" stroke="#2669FF" stroke-width="2.07882" stroke-linecap="round" stroke-linejoin="round"/>
<path d="M20.2942 22.2002V17.168" stroke="#2669FF" stroke-width="2.07882" stroke-linecap="round" stroke-linejoin="round"/>
</svg>
