<svg width="24" height="17" viewBox="0 0 24 17" fill="none" xmlns="http://www.w3.org/2000/svg">
<path d="M11.9121 1C9.70134 1.00203 7.53407 1.61475 5.64947 2.77057C3.76487 3.92639 2.2362 5.58036 1.23213 7.55C1.07962 7.84344 1 8.16929 1 8.5C1 8.83071 1.07962 9.15656 1.23213 9.45C2.23915 11.4156 3.76909 13.0652 5.65347 14.2171C7.53785 15.369 9.70357 15.9785 11.9121 15.9785C14.1207 15.9785 16.2864 15.369 18.1708 14.2171C20.0552 13.0652 21.5851 11.4156 22.5921 9.45C22.7446 9.15656 22.8243 8.83071 22.8243 8.5C22.8243 8.16929 22.7446 7.84344 22.5921 7.55C21.5881 5.58036 20.0594 3.92639 18.1748 2.77057C16.2902 1.61475 14.1229 1.00203 11.9121 1V1Z" stroke="#91919F" stroke-width="2" stroke-linecap="round" stroke-linejoin="round"/>
</svg>
